<?xml version="1.0" encoding="utf-8"?><!-- Uploaded to: SVG Repo, www.svgrepo.com, Generator: SVG Repo Mixer Tools -->
<svg fill="#000000" width="800px" height="800px" viewBox="0 0 24 24" xmlns="http://www.w3.org/2000/svg" id="more-horizontal" class="icon glyph"><path d="M19,13.93a1.72,1.72,0,0,1-.39,0,2.72,2.72,0,0,1-.38-.11,2.27,2.27,0,0,1-.34-.19,2.42,2.42,0,0,1-.31-.25,1.76,1.76,0,0,1-.24-.3,2.37,2.37,0,0,1-.19-.35,1.58,1.58,0,0,1-.11-.37,1.72,1.72,0,0,1,0-.39,2,2,0,0,1,.58-1.41,1.79,1.79,0,0,1,.31-.25,1.63,1.63,0,0,1,.34-.19,1.82,1.82,0,0,1,.38-.11,2,2,0,0,1,1.8.55,2,2,0,0,1,0,2.82A2,2,0,0,1,19,13.93Z"></path><path d="M12,14a1.72,1.72,0,0,1-.39,0,1.82,1.82,0,0,1-.38-.11,1.63,1.63,0,0,1-.34-.19,1.42,1.42,0,0,1-.3-.25A2,2,0,0,1,10,12a1.72,1.72,0,0,1,0-.39,1.58,1.58,0,0,1,.11-.37,1.48,1.48,0,0,1,.19-.35,2.16,2.16,0,0,1,.55-.55,1.63,1.63,0,0,1,.34-.19,1.82,1.82,0,0,1,.38-.11,2,2,0,0,1,1.8.55,1.42,1.42,0,0,1,.25.3,2,2,0,0,1,.19.35,1.58,1.58,0,0,1,.11.37A1.72,1.72,0,0,1,14,12a2,2,0,0,1-2,2Z"></path><path d="M5,14.07a2,2,0,0,1-1.41-.58,1.79,1.79,0,0,1-.25-.31,2.27,2.27,0,0,1-.19-.34A1.66,1.66,0,0,1,3,12.46a1.92,1.92,0,0,1,0-.78,1.58,1.58,0,0,1,.11-.37A2.37,2.37,0,0,1,3.34,11a1.42,1.42,0,0,1,.25-.3,2,2,0,0,1,2.82,0,1.42,1.42,0,0,1,.25.3,2.37,2.37,0,0,1,.19.35,1.58,1.58,0,0,1,.11.37,1.92,1.92,0,0,1,0,.78,1.66,1.66,0,0,1-.11.38,2.27,2.27,0,0,1-.19.34,1.79,1.79,0,0,1-.25.31A2,2,0,0,1,5,14.07Z"></path></svg>
