<svg xmlns="http://www.w3.org/2000/svg" viewBox="0 0 500 500">
    <g id="freepik--background-complete--inject-76">
        <rect x="416.78" y="398.49" width="33.12" height="0.25" style="fill:#ebebeb"></rect>
        <rect x="322.53" y="401.21" width="8.69" height="0.25" style="fill:#ebebeb"></rect>
        <rect x="396.59" y="389.21" width="19.19" height="0.25" style="fill:#ebebeb"></rect>
        <rect x="52.46" y="390.89" width="43.19" height="0.25" style="fill:#ebebeb"></rect>
        <rect x="104.56" y="390.89" width="6.33" height="0.25" style="fill:#ebebeb"></rect>
        <rect x="131.47" y="395.11" width="93.68" height="0.25" style="fill:#ebebeb"></rect>



        <polygon
            points="140.74 216.48 143.88 214.83 143.28 218.32 145.82 220.8 142.31 221.31 140.74 224.49 139.17 221.31 135.66 220.8 138.2 218.32 137.6 214.83 140.74 216.48"
            style="fill:#e0e0e0"></polygon>
        <path
            d="M320.17,141.9c-22.44-7-40.06-20.57,3.94-39.07s32.5,39.76,67,43.88,55.18,14.72,13.79,35.37S373.29,158.38,320.17,141.9Z"
            style="fill:#f5f5f5"></path>
        <polygon
            points="150.27 82.07 154.81 79.68 153.95 84.74 157.62 88.32 152.54 89.06 150.27 93.66 148 89.06 142.93 88.32 146.6 84.74 145.73 79.68 150.27 82.07"
            style="fill:#f5f5f5"></polygon>
        <polygon
            points="427.87 246.12 436.95 241.35 435.22 251.46 442.56 258.62 432.41 260.1 427.87 269.3 423.33 260.1 413.18 258.62 420.52 251.46 418.79 241.35 427.87 246.12"
            style="fill:#f5f5f5"></polygon>
        <polygon
            points="351.41 80.65 357.36 77.52 356.22 84.14 361.03 88.83 354.39 89.79 351.41 95.82 348.44 89.79 341.8 88.83 346.61 84.14 345.47 77.52 351.41 80.65"
            style="fill:#f0f0f0"></polygon>
        <polygon
            points="65.34 184.28 68.48 182.63 67.88 186.13 70.42 188.6 66.91 189.11 65.34 192.29 63.77 189.11 60.27 188.6 62.8 186.13 62.21 182.63 65.34 184.28"
            style="fill:#f5f5f5"></polygon>
        <polygon
            points="104.34 143.84 107.48 142.19 106.88 145.68 109.42 148.15 105.91 148.66 104.34 151.84 102.77 148.66 99.27 148.15 101.8 145.68 101.2 142.19 104.34 143.84"
            style="fill:#f5f5f5"></polygon>
        <polygon
            points="404.9 112.87 408.04 111.22 407.44 114.71 409.98 117.19 406.47 117.69 404.9 120.87 403.33 117.69 399.82 117.19 402.36 114.71 401.76 111.22 404.9 112.87"
            style="fill:#f5f5f5"></polygon>
        <polygon
            points="331.45 131.76 334.59 130.11 333.99 133.61 336.53 136.08 333.02 136.59 331.45 139.77 329.89 136.59 326.38 136.08 328.92 133.61 328.32 130.11 331.45 131.76"
            style="fill:#fafafa"></polygon>
        <polygon
            points="334.9 115.08 333.08 116.05 333.43 114.01 331.94 112.57 333.99 112.27 334.9 110.42 335.82 112.27 337.86 112.57 336.38 114.01 336.73 116.05 334.9 115.08"
            style="fill:#e6e6e6"></polygon>
        <polygon
            points="221.91 101.06 220.08 102.03 220.43 99.99 218.95 98.55 221 98.25 221.91 96.4 222.83 98.25 224.87 98.55 223.39 99.99 223.74 102.03 221.91 101.06"
            style="fill:#e6e6e6"></polygon>
        <polygon
            points="399.72 172.94 402.86 171.29 402.26 174.79 404.8 177.26 401.29 177.77 399.72 180.95 398.15 177.77 394.65 177.26 397.19 174.79 396.59 171.29 399.72 172.94"
            style="fill:#fafafa"></polygon>
        <polygon
            points="366.94 358.74 370.07 357.09 369.47 360.58 372.01 363.06 368.5 363.57 366.94 366.75 365.37 363.57 361.86 363.06 364.4 360.58 363.8 357.09 366.94 358.74"
            style="fill:#f5f5f5"></polygon>
        <polygon
            points="296.36 88.98 299.57 87.29 298.96 90.87 301.56 93.4 297.96 93.93 296.36 97.18 294.75 93.93 291.15 93.4 293.75 90.87 293.14 87.29 296.36 88.98"
            style="fill:#f0f0f0"></polygon>
        <path d="M54.05,262.65c10.51-8.7,50.89-38.48,53.85-8.73s53.63,27.12,32.35,37.9S31.58,281.24,54.05,262.65Z"
            style="fill:#f5f5f5"></path>
        <polygon
            points="71.31 261.57 74.45 259.92 73.85 263.41 76.39 265.89 72.88 266.4 71.31 269.58 69.74 266.4 66.23 265.89 68.77 263.41 68.17 259.92 71.31 261.57"
            style="fill:#e0e0e0"></polygon>
        <polygon
            points="116.83 279.32 118.88 278.24 118.49 280.53 120.15 282.15 117.86 282.49 116.83 284.57 115.8 282.49 113.51 282.15 115.17 280.53 114.78 278.24 116.83 279.32"
            style="fill:#fafafa"></polygon>
        <polygon
            points="421.86 310.63 424.99 308.98 424.39 312.47 426.93 314.95 423.43 315.46 421.86 318.64 420.29 315.46 416.78 314.95 419.32 312.47 418.72 308.98 421.86 310.63"
            style="fill:#e0e0e0"></polygon>
        <path d="M125.58,359a9.4,9.4,0,1,1-3.84-12.72A9.39,9.39,0,0,1,125.58,359Z" style="fill:#f0f0f0"></path>
        <path
            d="M126.31,357.26a9.64,9.64,0,0,1-.46,1.23c3.49,2.28,5.61,4.07,5.3,4.65-.51.95-7.33-1.72-15.24-6s-13.91-8.44-13.4-9.39c.31-.58,3,.19,6.8,1.84a11.7,11.7,0,0,1,.78-1.07c-8.8-4.2-15.43-6.47-16-5.3-.81,1.51,8.74,8.2,21.32,14.94s23.45,11,24.26,9.48C140.25,366.51,134.68,362.25,126.31,357.26Z"
            style="fill:#e0e0e0"></path>
        <polygon
            points="316.35 263.61 319.49 261.96 318.89 265.46 321.43 267.93 317.92 268.44 316.35 271.62 314.78 268.44 311.28 267.93 313.81 265.46 313.21 261.96 316.35 263.61"
            style="fill:#ebebeb"></polygon>
        <path
            d="M406.87,215.51c-2.67-5.23-13.07-2.46-24.37,2a3.44,3.44,0,0,1-3.36-.46,8.67,8.67,0,0,0-13.84,6,3.46,3.46,0,0,1-2.05,2.81c-7.94,3.44-14,5.68-14.82,3.63-2.49-6.17,30.69-19.33,30.69-19.33s-44.72,13.4-37.56,24.22c2.76,4.18,12,1.72,22.4-2.56a8.42,8.42,0,0,1,6.55.15,8.65,8.65,0,0,0,11.74-5.58,7.94,7.94,0,0,1,4.36-4.95c8.06-3.76,14.17-6.26,15-4.44,2.51,5.48-33.42,21-33.42,21S413.21,227.92,406.87,215.51Z"
            style="fill:#f0f0f0"></path>
    </g>
    <g id="freepik--Shadow--inject-76">
        <ellipse id="freepik--path--inject-76" cx="199.32" cy="408.79" rx="75.16" ry="7.72" style="fill:#f5f5f5">
        </ellipse>
        <ellipse id="freepik--path--inject-76" cx="336.53" cy="406.88" rx="37.58" ry="5.81" style="fill:#f5f5f5">
        </ellipse>
    </g>
    <g id="freepik--Rocket--inject-76">
        <path
            d="M296.7,331.18c0-.12-.07-.24-.11-.36-.57-1.52-2.73-2.13-2.73-2.13a5.25,5.25,0,0,0-.81,2.58l-.32.11-.32.13a5.28,5.28,0,0,0-2.3-1.42s-1.24,1.87-.67,3.4l.15.34a2.88,2.88,0,0,0-.36,2.55c.66,1.79,3.32,2.46,5.92,1.49s4.17-3.21,3.5-5A2.92,2.92,0,0,0,296.7,331.18Z"
            style="fill:#1E66F5"></path>
        <path
            d="M296.7,331.18c0-.12-.07-.24-.11-.36-.57-1.52-2.73-2.13-2.73-2.13a5.25,5.25,0,0,0-.81,2.58l-.32.11-.32.13a5.28,5.28,0,0,0-2.3-1.42s-1.24,1.87-.67,3.4l.15.34a2.88,2.88,0,0,0-.36,2.55c.66,1.79,3.32,2.46,5.92,1.49s4.17-3.21,3.5-5A2.92,2.92,0,0,0,296.7,331.18Z"
            style="fill:#fff;opacity:0.8"></path>
        <path
            d="M300.66,285c-11.87.74-25.94,83.65-38.88,78.44-5.48-2.2-10.37-21.19-14.18-42.33l-4.45,1.65c2.65,13.36,15.31,70.69,31.13,35.53,17.82-39.62,23.08-100.4,36.13-52.16l1.44-.69S308.15,284.53,300.66,285Z"
            style="fill:#1E66F5"></path>
        <path
            d="M300.66,285c-11.87.74-25.94,83.65-38.88,78.44-5.48-2.2-10.37-21.19-14.18-42.33l-4.45,1.65c2.65,13.36,15.31,70.69,31.13,35.53,17.82-39.62,23.08-100.4,36.13-52.16l1.44-.69S308.15,284.53,300.66,285Z"
            style="opacity:0.30000000000000004"></path>
        <path
            d="M318.19,297.62s1.88-13.85,17.44-26.45,26.11-4.06,26.11-4.06l4.15,2.72.21,11.64-5.9,10.27-14.68,11.65-15.16,4.28L323,304.36Z"
            style="fill:#1E66F5"></path>
        <path
            d="M318.19,297.62s1.88-13.85,17.44-26.45,26.11-4.06,26.11-4.06l4.15,2.72.21,11.64-5.9,10.27-14.68,11.65-15.16,4.28L323,304.36Z"
            style="fill:#fff;opacity:0.5"></path>
        <path d="M283.79,307.34l23.68,10,16.06-10.84-24-4.7a21.24,21.24,0,0,0-15.94,3.23h0A1.3,1.3,0,0,0,283.79,307.34Z"
            style="fill:#263238"></path>
        <path d="M313.86,351.92l-.43-25.72,16.06-10.83-4.63,24a21.22,21.22,0,0,1-9,13.57h0A1.3,1.3,0,0,1,313.86,351.92Z"
            style="fill:#263238"></path>
        <g style="opacity:0.5">
            <path
                d="M283.79,307.34l23.68,10,16.06-10.84-24-4.7a21.24,21.24,0,0,0-15.94,3.23h0A1.3,1.3,0,0,0,283.79,307.34Z"
                style="fill:#fff"></path>
            <path
                d="M313.86,351.92l-.43-25.72,16.06-10.83-4.63,24a21.22,21.22,0,0,1-9,13.57h0A1.3,1.3,0,0,1,313.86,351.92Z"
                style="fill:#fff"></path>
        </g>
        <path
            d="M392.36,263.9A68.51,68.51,0,0,0,365.17,266l1.79,9.54-.86,5.91-9.25,13-9.48,6.4L334,306.15,323,304.36,315.61,300c-5.19,4.83-10.34,9.92-15,14.89,1.83,3.16,3.82,6.34,6,9.5s4.33,6.19,6.58,9.07c20.53-7.84,44.19-20.41,53.7-26.83a68.41,68.41,0,0,0,27.92-39.11A2.91,2.91,0,0,0,392.36,263.9Z"
            style="fill:#263238"></path>
        <path
            d="M392.36,263.9A68.51,68.51,0,0,0,365.17,266l1.79,9.54-.86,5.91-9.25,13-9.48,6.4L334,306.15,323,304.36,315.61,300c-5.19,4.83-10.34,9.92-15,14.89,1.83,3.16,3.82,6.34,6,9.5s4.33,6.19,6.58,9.07c20.53-7.84,44.19-20.41,53.7-26.83a68.41,68.41,0,0,0,27.92-39.11A2.91,2.91,0,0,0,392.36,263.9Z"
            style="fill:#fff;opacity:0.6000000000000001"></path>
        <path
            d="M306.6,324.39c-2-2.92-3.8-5.84-5.52-8.76-1.65,1.66-3.27,3.33-4.81,5q2.19,3.76,4.73,7.54t5.23,7.21c2.11-.81,4.26-1.68,6.42-2.59C310.59,330.1,308.56,327.3,306.6,324.39Z"
            style="fill:#263238"></path>
        <path
            d="M393.88,266.16c-8.53,8.91-20.69,19-35,28.66-9.3,6.27-31,20.08-49.15,30.91a1.42,1.42,0,0,0-.45,2l1.62,2.39a1.41,1.41,0,0,0,1.76.51c19.59-8.86,42.19-21.65,51.53-28,13.92-9.38,24.14-21.73,29.83-34.62a2,2,0,0,0-.18-1.91Z"
            style="opacity:0.1"></path>
        <g style="opacity:0.4">
            <path
                d="M319.05,302c-5.47,4.67-11,9.58-16,14.36A1.43,1.43,0,0,0,305,318.5c5.57-4.75,11.65-9.69,17.62-14.39Z"
                style="fill:#fff"></path>
            <path d="M365.89,269.83l.76,4.05A103,103,0,0,1,393,264.8l-.31-.45A77.34,77.34,0,0,0,365.89,269.83Z"
                style="fill:#fff"></path>
        </g>
        <path
            d="M366.76,265.6q-2.53.66-5,1.51c2.23,5.17,2.84,9.71,1.86,13.74-1.4,5.77-6.18,11.14-14.6,16.42s-15.34,7.24-21.14,6a19.87,19.87,0,0,1-9.67-5.65q-1.92,1.75-3.83,3.55c10.14,10.11,22,10.17,37.41.52C368,291.53,372.8,280.17,366.76,265.6Z"
            style="fill:#263238"></path>
        <path
            d="M366.76,265.6q-2.53.66-5,1.51c2.23,5.17,2.84,9.71,1.86,13.74-1.4,5.77-6.18,11.14-14.6,16.42s-15.34,7.24-21.14,6a19.87,19.87,0,0,1-9.67-5.65q-1.92,1.75-3.83,3.55c10.14,10.11,22,10.17,37.41.52C368,291.53,372.8,280.17,366.76,265.6Z"
            style="fill:#fff;opacity:0.5"></path>
        <g style="opacity:0.2">
            <path d="M326.64,304.49a1.37,1.37,0,1,1-1.88-.43A1.37,1.37,0,0,1,326.64,304.49Z"></path>
            <path d="M341.13,304.08a1.37,1.37,0,1,1-1.89-.43A1.37,1.37,0,0,1,341.13,304.08Z"></path>
            <path d="M354.8,296.5a1.36,1.36,0,1,1-1.88-.43A1.36,1.36,0,0,1,354.8,296.5Z"></path>
            <path d="M365,286.36a1.37,1.37,0,1,1-1.88-.43A1.36,1.36,0,0,1,365,286.36Z"></path>
            <path d="M367.3,271.83a1.37,1.37,0,1,1-1.89-.43A1.36,1.36,0,0,1,367.3,271.83Z"></path>
        </g>
        <path
            d="M369.63,264.92a86.18,86.18,0,0,0,15.71,23.29,68.58,68.58,0,0,0,9.46-20.69,2.91,2.91,0,0,0-2.44-3.62A68.76,68.76,0,0,0,369.63,264.92Z"
            style="fill:#1E66F5"></path>
        <path
            d="M321.6,314.27c1.09,1.63-4,7-5.63,8.08s-20.45,11.88-21.55,10.25,15.94-15,17.57-16.14S320.5,312.64,321.6,314.27Z"
            style="fill:#263238"></path>
        <path
            d="M321.6,314.27c1.09,1.63-4,7-5.63,8.08s-20.45,11.88-21.55,10.25,15.94-15,17.57-16.14S320.5,312.64,321.6,314.27Z"
            style="fill:#fff;opacity:0.5"></path>
        <path
            d="M345.55,268.81a26.44,26.44,0,0,0-8.68,4.87c-12.83,10.4-14.38,21.83-14.38,21.83l1.14,1.59c1.22-4.14,4.82-12.89,14.91-21.06a29.54,29.54,0,0,1,8.1-4.81Z"
            style="fill:#fff;opacity:0.5"></path>
        <path d="M350.83,268l.54,2a15.86,15.86,0,0,1,6.85.64l-.14-.59A13.55,13.55,0,0,0,350.83,268Z"
            style="fill:#fff;opacity:0.5"></path>
    </g>
    <g id="freepik--Cat--inject-76">
        <path
            d="M137.24,230.63h-.37a8.1,8.1,0,0,0-4.49,1.35l-.06,0A67.18,67.18,0,0,0,186,353.28a3.41,3.41,0,0,0,1.62-.94l.06-.06a3.42,3.42,0,0,0-2.13-5.79A61.86,61.86,0,0,1,143.71,245,8.76,8.76,0,0,0,137.24,230.63Z"
            style="fill:#1E66F5"></path>
        <path
            d="M187.68,352.28l-.06.06a3.51,3.51,0,0,1-1.61.94,67.23,67.23,0,0,1-38.82-1.46,65.39,65.39,0,0,1-7.32-3,67.19,67.19,0,0,1-38-58.2l.09-6.37A67.24,67.24,0,0,1,132.32,232l.06,0a8.11,8.11,0,0,1,4.5-1.35h.37A8.75,8.75,0,0,1,143.71,245a61.94,61.94,0,0,0-9.26,64.85c.56,1.28,1.18,2.55,1.84,3.81q1.34,2.52,2.93,5a61.44,61.44,0,0,0,25.48,22.19c1.28.61,2.57,1.16,3.88,1.67h0a62,62,0,0,0,17,4A3.42,3.42,0,0,1,187.68,352.28Z"
            style="fill:#fff;opacity:0.5"></path>
        <path
            d="M188.41,348.66a3.33,3.33,0,0,0-2.86-2.17A61.86,61.86,0,0,1,143.71,245a8.64,8.64,0,0,0,1.45-8.77,6.15,6.15,0,0,0-3.07,1l-.05,0c-25.35,16.52-30.75,53.15-12.07,81.81C143.82,340.31,167,351.18,188.41,348.66Z"
            style="opacity:0.1"></path>
        <path
            d="M188.89,346c-1.8-1.66-3.27-.64-4.14.41l.8.1a3.42,3.42,0,0,1,2.13,5.79l-.06.06a3.61,3.61,0,0,1-.8.61C190.09,356.05,191.94,348.78,188.89,346Z"
            style="fill:#1E66F5"></path>
        <g style="opacity:0.2">
            <path
                d="M188.89,346c-1.8-1.66-3.27-.64-4.14.41l.8.1a3.42,3.42,0,0,1,2.13,5.79l-.06.06a3.61,3.61,0,0,1-.8.61C190.09,356.05,191.94,348.78,188.89,346Z"
                style="fill:#fff"></path>
        </g>
        <path
            d="M210.71,253.23c-3.79-5.7-7.84-7.77-6.07-27.43s-19.21-23.89-26.11-17.27-1.22,18.7,12.39,20.37c0,0-11.91,57.57,16.5,45C211.8,272,216.55,262,210.71,253.23Z"
            style="fill:#1E66F5"></path>
        <path
            d="M210.71,253.23c-3.79-5.7-7.84-7.77-6.07-27.43s-19.21-23.89-26.11-17.27-1.22,18.7,12.39,20.37c0,0-11.91,57.57,16.5,45C211.8,272,216.55,262,210.71,253.23Z"
            style="fill:#fff;opacity:0.5"></path>
        <path d="M190.7,226.5c-3.34-.38-14.91-5.93-6.29-11.87S204.34,228,190.7,226.5Z" style="fill:#1E66F5"></path>
        <path
            d="M190.62,231.11c6.15.38,11.8-3.54,15-8.46.8-1.21-1.15-2.34-1.94-1.14-2.83,4.29-7.76,7.68-13.11,7.35-1.45-.09-1.44,2.16,0,2.25Z"
            style="fill:#1E66F5"></path>
        <g style="opacity:0.2">
            <path d="M190.7,226.5c-3.34-.38-14.91-5.93-6.29-11.87S204.34,228,190.7,226.5Z" style="fill:#fff"></path>
            <path
                d="M190.62,231.11c6.15.38,11.8-3.54,15-8.46.8-1.21-1.15-2.34-1.94-1.14-2.83,4.29-7.76,7.68-13.11,7.35-1.45-.09-1.44,2.16,0,2.25Z"
                style="fill:#fff"></path>
        </g>
        <path
            d="M207.42,273.91c4.38-1.93,9.13-11.89,3.29-20.68-.91-1.37-1.83-2.52-2.69-3.76A110.33,110.33,0,0,1,192.76,272C195.63,275.77,200.23,277.09,207.42,273.91Z"
            style="opacity:0.1"></path>
        <path
            d="M191.75,322.67c2.45-7.17,3.38-49.88-22.46-20.32,0,0,2.31-37.62-14.54-27.8-18.59,10.84-.67,18.89-3.89,40.27S167.33,321,167.33,321,179.39,358.87,191.75,322.67Z"
            style="fill:#1E66F5"></path>
        <path
            d="M191.75,322.67c2.45-7.17,3.38-49.88-22.46-20.32,0,0,2.31-37.62-14.54-27.8-18.59,10.84-.67,18.89-3.89,40.27S167.33,321,167.33,321,179.39,358.87,191.75,322.67Z"
            style="fill:#fff;opacity:0.5"></path>
        <path
            d="M151,277.11c-12.06,9.65,2.84,18-.12,37.71a18.9,18.9,0,0,0,0,7.67c.31.45,9.74,13.9,13.22-20.49C167.55,268.27,152.09,276.48,151,277.11Z"
            style="fill:#1E66F5"></path>
        <path
            d="M151,277.11c-12.06,9.65,2.84,18-.12,37.71a18.9,18.9,0,0,0,0,7.67c.31.45,9.74,13.9,13.22-20.49C167.55,268.27,152.09,276.48,151,277.11Z"
            style="fill:#fff;opacity:0.2"></path>
        <g style="opacity:0.5">
            <path d="M149.88,285.78l8-6c.77-.58,0-1.88-.75-1.3l-8,6c-.77.57,0,1.88.75,1.3Z" style="fill:#fff"></path>
            <path d="M151,292.2l9.81-6.37c.8-.52,0-1.82-.76-1.29l-9.81,6.37c-.81.52-.06,1.82.76,1.29Z"
                style="fill:#fff"></path>
            <path d="M152.46,298.82l9.81-6.37c.81-.53.06-1.83-.76-1.3l-9.81,6.37c-.8.53,0,1.83.76,1.3Z"
                style="fill:#fff"></path>
            <path d="M153.51,306l8.14-5.28c.81-.53.06-1.83-.75-1.3l-8.14,5.29c-.81.52-.06,1.82.75,1.29Z"
                style="fill:#fff"></path>
            <path d="M153.55,312.79l7.11-4.62c.8-.52.05-1.82-.76-1.29l-7.11,4.61c-.8.53,0,1.83.76,1.3Z"
                style="fill:#fff"></path>
            <path d="M153.07,319.84l7.11-4.61c.81-.53,0-1.83-.76-1.3l-7.1,4.62c-.81.52-.06,1.82.75,1.29Z"
                style="fill:#fff"></path>
        </g>
        <path
            d="M169.25,300.71c.25,7.21-1.72,14.61-4,21.36-.47,1.37,1.7,2,2.17.6,2.36-6.92,4.36-14.57,4.1-22-.05-1.45-2.3-1.46-2.25,0Z"
            style="fill:#1E66F5"></path>
        <g style="opacity:0.2">
            <path
                d="M169.25,300.71c.25,7.21-1.72,14.61-4,21.36-.47,1.37,1.7,2,2.17.6,2.36-6.92,4.36-14.57,4.1-22-.05-1.45-2.3-1.46-2.25,0Z"
                style="fill:#fff"></path>
        </g>
        <path
            d="M170.8,329.27c4.47,8.6,12.64,17.73,20.95-6.6,1.93-5.65,2.91-33.37-9.41-30.4a65.09,65.09,0,0,0-3.82,5.77C175.17,303.85,170.53,317.1,170.8,329.27Z"
            style="opacity:0.1"></path>
        <path d="M260.82,266.06s24,58.94-37,84.34c-53,22.08-50.85-34.44-44-49,8.14-17.31,33.33-41,33.67-63.67Z"
            style="fill:#1E66F5"></path>
        <path d="M260.82,266.06s24,58.94-37,84.34c-53,22.08-50.85-34.44-44-49,8.14-17.31,33.33-41,33.67-63.67Z"
            style="fill:#fff;opacity:0.7000000000000001"></path>
        <path d="M310.48,218.06a52,52,0,0,1-45.63,51.61,51.35,51.35,0,0,1-6.36.39,52,52,0,1,1,52-52Z"
            style="fill:#1E66F5"></path>
        <path d="M310.48,218.06a52,52,0,0,1-45.63,51.61,51.35,51.35,0,0,1-6.36.39,52,52,0,1,1,52-52Z"
            style="fill:#fff;opacity:0.30000000000000004"></path>
        <path
            d="M264.25,264.79a47.08,47.08,0,0,0,41.31-46.73c0-.34,0-.69,0-1a13.55,13.55,0,0,0-13.29-13.28h-.79a47.3,47.3,0,0,0-47.3,47.3v.8a13.57,13.57,0,0,0,13.28,13.29h1A47.64,47.64,0,0,0,264.25,264.79Z"
            style="fill:#1E66F5"></path>
        <path
            d="M264.25,264.79a47.08,47.08,0,0,0,41.31-46.73c0-.34,0-.69,0-1a13.55,13.55,0,0,0-13.29-13.28h-.79a47.3,47.3,0,0,0-47.3,47.3v.8a13.57,13.57,0,0,0,13.28,13.29h1A47.64,47.64,0,0,0,264.25,264.79Z"
            style="fill:#fff;opacity:0.30000000000000004"></path>
        <path
            d="M262.78,272.16a59.21,59.21,0,0,0-2-6.1l-47.33-28.33a35.48,35.48,0,0,1-1,7.66l7.59,10.89,10.32,8.82,13.93,5,14.17,2.85Z"
            style="fill:#263238"></path>
        <path
            d="M262.78,272.16a59.21,59.21,0,0,0-2-6.1l-47.33-28.33a35.48,35.48,0,0,1-1,7.66l7.59,10.89,10.32,8.82,13.93,5,14.17,2.85Z"
            style="fill:#fff;opacity:0.5"></path>
        <path
            d="M252.22,196.32c-.43,11.18-5.82,20.64-12,21.14s-10.9-8.16-10.47-19.34,12-21.14,12-21.14S252.65,185.15,252.22,196.32Z"
            style="fill:#263238"></path>
        <path
            d="M252.22,196.32c-.43,11.18-5.82,20.64-12,21.14s-10.9-8.16-10.47-19.34,12-21.14,12-21.14S252.65,185.15,252.22,196.32Z"
            style="fill:#fff;opacity:0.6000000000000001"></path>
        <path d="M245.71,194.9c-.25,6.52-3.39,12-7,12.34s-6.37-4.76-6.12-11.29,7-12.34,7-12.34S246,188.37,245.71,194.9Z"
            style="opacity:0.2"></path>
        <path
            d="M277.75,208.68c-8.14,7.52-11.81,17.8-8.19,23s13.14,3.25,21.28-4.26,8.2-23,8.2-23S285.89,201.17,277.75,208.68Z"
            style="fill:#1E66F5"></path>
        <path
            d="M277.75,208.68c-8.14,7.52-11.81,17.8-8.19,23s13.14,3.25,21.28-4.26,8.2-23,8.2-23S285.89,201.17,277.75,208.68Z"
            style="opacity:0.2"></path>
        <path
            d="M280.18,210.74c-4.75,4.39-6.89,10.39-4.78,13.4s7.68,1.91,12.43-2.48,4.78-13.41,4.78-13.41S284.94,206.35,280.18,210.74Z"
            style="opacity:0.2"></path>
        <path
            d="M283.58,255.9l.87.67c.63.48,1.56-.16,1.55-1a63.38,63.38,0,0,1-.16-7.94c2.53-18.15-1.1-42.15-18.63-50.48s-37.94,4.26-50,17.9a62.08,62.08,0,0,1-6.08,5c-.68.56-.56,1.7.21,1.88l1.06.26-4.17,3a1.23,1.23,0,0,0-.38,1.49l3.19,6.19-.27-.06a1.15,1.15,0,0,0-1,1.8,63.36,63.36,0,0,1,4.38,5.52,54.11,54.11,0,0,0,23.49,21.52,52.85,52.85,0,0,0,31.29,4.5,60.76,60.76,0,0,1,7-.13,1.16,1.16,0,0,0,.71-2l-.23-.18,6.72-1.48a1.21,1.21,0,0,0,.87-1.25Z"
            style="fill:#263238"></path>
        <path
            d="M283.58,255.9l.87.67c.63.48,1.56-.16,1.55-1a63.38,63.38,0,0,1-.16-7.94c2.53-18.15-1.1-42.15-18.63-50.48s-37.94,4.26-50,17.9a62.08,62.08,0,0,1-6.08,5c-.68.56-.56,1.7.21,1.88l1.06.26-4.17,3a1.23,1.23,0,0,0-.38,1.49l3.19,6.19-.27-.06a1.15,1.15,0,0,0-1,1.8,63.36,63.36,0,0,1,4.38,5.52,54.11,54.11,0,0,0,23.49,21.52,52.85,52.85,0,0,0,31.29,4.5,60.76,60.76,0,0,1,7-.13,1.16,1.16,0,0,0,.71-2l-.23-.18,6.72-1.48a1.21,1.21,0,0,0,.87-1.25Z"
            style="fill:#fff;opacity:0.8"></path>
        <path
            d="M267.21,240.66c19.29-.38,18.8,15.75,18.79,14.86a63.38,63.38,0,0,1-.16-7.94c1.79-12.84.49-28.59-6.62-39.66-9.09-2.3-21.57-.08-27.64,22.35C249.68,237.26,258.9,240.83,267.21,240.66Z"
            style="fill:#1E66F5"></path>
        <path d="M241,235s-2.29-4-1.42-5.13c.63-.81,2.72.19,3.52.57s2.89,1.36,2.68,2.37C245.5,234.23,241,235,241,235Z"
            style="fill:#1E66F5"></path>
        <path d="M241,235s-2.29-4-1.42-5.13c.63-.81,2.72.19,3.52.57s2.89,1.36,2.68,2.37C245.5,234.23,241,235,241,235Z"
            style="opacity:0.30000000000000004"></path>
        <path
            d="M244.73,239.16a2.26,2.26,0,0,1-3.23-1.45.76.76,0,0,0-.92-.52,2.26,2.26,0,0,1-3.23-1.45c-.31-.91-1.76-.52-1.44.4a3.73,3.73,0,0,0,4.45,2.67,3.68,3.68,0,0,0,4.77,1.8C246,240.26,245.63,238.81,244.73,239.16Z"
            style="fill:#263238"></path>
        <path d="M237.18,220.65c-1.53,3.33-4,5.44-5.5,4.73s-1.49-4,0-7.33,4-5.44,5.49-4.73S238.7,217.32,237.18,220.65Z"
            style="fill:#263238"></path>
        <path
            d="M236.1,217.39c-.6,1.3-1.57,2.14-2.16,1.85s-.59-1.56,0-2.87,1.57-2.14,2.16-1.86S236.7,216.08,236.1,217.39Z"
            style="fill:#fff"></path>
        <path d="M264.26,234c-1.52,3.33-4,5.45-5.49,4.73s-1.49-4,0-7.33,4-5.44,5.5-4.73S265.79,230.71,264.26,234Z"
            style="fill:#263238"></path>
        <path
            d="M263.18,230.78c-.6,1.3-1.56,2.14-2.15,1.85s-.59-1.56,0-2.87,1.57-2.14,2.16-1.86S263.78,229.47,263.18,230.78Z"
            style="fill:#fff"></path>
        <path
            d="M228,228.9a34.74,34.74,0,0,0-13.44-12c-.43-.21-.81.44-.38.65a34,34,0,0,1,13.18,11.75c.26.4.91,0,.64-.38Z"
            style="fill:#263238"></path>
        <path
            d="M227.05,231.34a44.53,44.53,0,0,0-16.65-10c-.46-.14-.66.58-.2.73a43.54,43.54,0,0,1,16.32,9.75c.36.33.89-.2.53-.53Z"
            style="fill:#263238"></path>
        <path
            d="M260.89,245.22a33.76,33.76,0,0,1,17.3,2.69c.44.2.82-.45.38-.64a34.5,34.5,0,0,0-17.68-2.8c-.48.05-.48.8,0,.75Z"
            style="fill:#263238"></path>
        <path
            d="M259.48,247.54A43.78,43.78,0,0,1,277.4,254c.41.26.78-.39.38-.65a44.08,44.08,0,0,0-18.1-6.57c-.47-.06-.67.66-.2.72Z"
            style="fill:#263238"></path>
        <g style="opacity:0.5">
            <path
                d="M234.57,209.87a9,9,0,0,1,6.4-1.76c.94.14,1.35-1.3.4-1.45a10.48,10.48,0,0,0-7.56,1.91c-.77.56,0,1.86.76,1.3Z">
            </path>
        </g>
        <g style="opacity:0.5">
            <path
                d="M267.42,221.26a8.91,8.91,0,0,1,2.42,6.18c0,1,1.47,1,1.5,0a10.46,10.46,0,0,0-2.86-7.24c-.66-.71-1.72.35-1.06,1.06Z">
            </path>
        </g>
        <path d="M310.48,218.06a52,52,0,0,1-45.63,51.61,51.35,51.35,0,0,1-6.36.39,52,52,0,1,1,52-52Z"
            style="fill:#1E66F5;opacity:0.30000000000000004"></path>
        <path
            d="M179,216.1a3.45,3.45,0,0,1-2.28-1.15,2.78,2.78,0,0,1-.35-.54c-.09-.18,0,0-.06-.17a.68.68,0,0,0-.62-.52,9,9,0,0,0-.13,2.2A5.48,5.48,0,0,0,179,217.6C180,217.73,180,216.23,179,216.1Z"
            style="fill:#1E66F5"></path>
        <path
            d="M182.33,211.24A4.43,4.43,0,0,1,182,207a.64.64,0,0,0,0-.49,11.31,11.31,0,0,0-1.69.77,5.41,5.41,0,0,0,1,5.07C181.9,213,183,212,182.33,211.24Z"
            style="fill:#1E66F5"></path>
        <g style="opacity:0.2">
            <path
                d="M179,216.1a3.45,3.45,0,0,1-2.28-1.15,2.78,2.78,0,0,1-.35-.54c-.09-.18,0,0-.06-.17a.68.68,0,0,0-.62-.52,9,9,0,0,0-.13,2.2A5.48,5.48,0,0,0,179,217.6C180,217.73,180,216.23,179,216.1Z">
            </path>
            <path
                d="M182.33,211.24A4.43,4.43,0,0,1,182,207a.64.64,0,0,0,0-.49,11.31,11.31,0,0,0-1.69.77,5.41,5.41,0,0,0,1,5.07C181.9,213,183,212,182.33,211.24Z">
            </path>
        </g>
        <path
            d="M188.5,289.66c6.82-.84,14.28,1,20.51,3.62,18.27,7.67,29.73,25.1,36.57,43,1.37,3.57,7.17,2,5.78-1.59-7.31-19.13-19.29-37.56-38.56-46.24-7.29-3.29-16.2-5.77-24.3-4.77-3.78.46-3.83,6.47,0,6Z"
            style="fill:#1E66F5"></path>
        <path
            d="M264.85,269.67a51.35,51.35,0,0,1-6.36.39,52,52,0,0,1-46.65-29c-.33-.67-.64-1.36-.94-2.05a1.55,1.55,0,0,0-2.66-.33,4.37,4.37,0,0,0-.29,4.65,57.16,57.16,0,0,0,56.9,30.84,4.55,4.55,0,0,0,3.73-2.58,1.56,1.56,0,0,0-1.66-2.22C266.23,269.49,265.55,269.59,264.85,269.67Z"
            style="fill:#1E66F5"></path>
        <path
            d="M276.33,175.93a43.71,43.71,0,0,0-8.37-3.11,1.46,1.46,0,0,0-1.83,1.54l.22,2.44a1.44,1.44,0,0,0,1.22,1.3,45,45,0,0,1,7.36,1.84,1.45,1.45,0,0,0,1.93-1.1l.25-1.34A1.44,1.44,0,0,0,276.33,175.93Z"
            style="fill:#fff;opacity:0.5"></path>
        <path
            d="M258.05,175l-.52-1.39A2.54,2.54,0,0,0,255,172a44.8,44.8,0,0,0-33.41,70.89l-.09-.17A44.89,44.89,0,0,1,256,178.37,2.52,2.52,0,0,0,258.05,175Z"
            style="fill:#fff;opacity:0.5"></path>
        <path
            d="M206.9,305.64s11.19-39.38-9-32.87c-22.25,7.18-5.11,19.89-13.49,41.83-5.75,15,3.92,14.34,10.57,12.42,0,0-18.36,34,11,24.7s31.67-30.77,24.67-42.38S206.9,305.64,206.9,305.64Z"
            style="fill:#1E66F5"></path>
        <path
            d="M206.9,305.64s11.19-39.38-9-32.87c-22.25,7.18-5.11,19.89-13.49,41.83-5.75,15,3.92,14.34,10.57,12.42,0,0-18.36,34,11,24.7s31.67-30.77,24.67-42.38S206.9,305.64,206.9,305.64Z"
            style="fill:#fff;opacity:0.5"></path>
        <path
            d="M193.34,274.61c-15,7.44-1.18,19.81-8.89,40a20.54,20.54,0,0,0-1.73,8.15c.22.55,7.11,17,18.79-18.68C213,269.08,194.66,274.2,193.34,274.61Z"
            style="fill:#1E66F5"></path>
        <path
            d="M193.34,274.61c-15,7.44-1.18,19.81-8.89,40a20.54,20.54,0,0,0-1.73,8.15c.22.55,7.11,17,18.79-18.68C213,269.08,194.66,274.2,193.34,274.61Z"
            style="fill:#fff;opacity:0.2"></path>
        <g style="opacity:0.5">
            <path d="M189,284l11.79-4.35c.9-.33.51-1.78-.4-1.44l-11.79,4.34c-.89.33-.51,1.78.4,1.45Z" style="fill:#fff">
            </path>
            <path d="M189,291.08l11.79-4.35c.9-.33.51-1.78-.4-1.44l-11.79,4.34c-.89.33-.51,1.79.4,1.45Z"
                style="fill:#fff"></path>
            <path d="M189.32,298.18l11.79-4.35c.9-.33.51-1.78-.4-1.44l-11.78,4.34c-.9.34-.51,1.79.39,1.45Z"
                style="fill:#fff"></path>
            <path d="M189.41,306l9.78-3.6c.9-.34.51-1.79-.4-1.45l-9.78,3.6c-.9.34-.51,1.79.4,1.45Z" style="fill:#fff">
            </path>
            <path d="M187.42,314.07l8.53-3.14c.9-.34.51-1.79-.4-1.45L187,312.63c-.9.33-.51,1.78.4,1.44Z"
                style="fill:#fff"></path>
            <path d="M185.06,321.35l8.53-3.15c.9-.33.51-1.78-.4-1.45l-8.53,3.15c-.9.33-.51,1.78.4,1.45Z"
                style="fill:#fff"></path>
        </g>
        <path
            d="M206.9,305.64s16.76-7.92,23.76,3.7,4.67,33.05-24.67,42.38c-13.06,4.16-16.66-.29-16.64-6.49-.64,7.31,2.59,13.14,17.41,8.42,30.81-9.8,33.26-32.32,25.91-44.52s-24.95-3.88-24.95-3.88Z"
            style="fill:#1E66F5"></path>
        <path
            d="M206.9,305.64s16.76-7.92,23.76,3.7,4.67,33.05-24.67,42.38c-13.06,4.16-16.66-.29-16.64-6.49-.64,7.31,2.59,13.14,17.41,8.42,30.81-9.8,33.26-32.32,25.91-44.52s-24.95-3.88-24.95-3.88Z"
            style="fill:#fff;opacity:0.2"></path>
        <path
            d="M206.88,303.66A55.83,55.83,0,0,1,194,326c-1.33,1.4.79,3.52,2.12,2.12a58.93,58.93,0,0,0,13.7-23.62c.54-1.86-2.36-2.65-2.9-.8Z"
            style="fill:#1E66F5"></path>
        <g style="opacity:0.2">
            <path
                d="M206.88,303.66A55.83,55.83,0,0,1,194,326c-1.33,1.4.79,3.52,2.12,2.12a58.93,58.93,0,0,0,13.7-23.62c.54-1.86-2.36-2.65-2.9-.8Z"
                style="fill:#fff"></path>
        </g>
        <path
            d="M260.65,279.82c-6.81-2.57-10.33-4.39-19.75-17.45-11.7-16.22-34.46,10-30.11,17.1s18.28,10.48,20-4.11l1.16.07s4,10.85,6.84,16.74c5.63,11.65,20.3,16.25,26.69,6.41C268.22,294.31,269.58,283.2,260.65,279.82Z"
            style="fill:#1E66F5"></path>
        <path
            d="M260.65,279.82c-6.81-2.57-10.33-4.39-19.75-17.45-11.7-16.22-34.46,10-30.11,17.1s18.28,10.48,20-4.11l1.16.07s4,10.85,6.84,16.74c5.63,11.65,20.3,16.25,26.69,6.41C268.22,294.31,269.58,283.2,260.65,279.82Z"
            style="fill:#1E66F5"></path>
        <path
            d="M260.65,279.82c-6.81-2.57-10.33-4.39-19.75-17.45-11.7-16.22-34.46,10-30.11,17.1s18.28,10.48,20-4.11l1.16.07s4,10.85,6.84,16.74c5.63,11.65,20.3,16.25,26.69,6.41C268.22,294.31,269.58,283.2,260.65,279.82Z"
            style="fill:#fff;opacity:0.5"></path>
        <path
            d="M260.65,279.82c9.83,3.7,6.15,15.35,2.93,19.23-4.65,5.62-9.2,6-13.31,3.72,4.23,4,9.45,4.51,15.69-2.18C270.37,295.86,272.44,280.37,260.65,279.82Z"
            style="fill:#1E66F5"></path>
        <path
            d="M260.65,279.82c9.83,3.7,6.15,15.35,2.93,19.23-4.65,5.62-9.2,6-13.31,3.72,4.23,4,9.45,4.51,15.69-2.18C270.37,295.86,272.44,280.37,260.65,279.82Z"
            style="fill:#fff;opacity:0.2"></path>
        <path
            d="M228.16,258.15a20.56,20.56,0,0,1,2.21,16.8c-.39,1.38,1.67,2.28,2.07.9,1.84-6.34,1.24-13.46-2.49-19.06-.81-1.2-2.6.16-1.79,1.36Z"
            style="fill:#1E66F5"></path>
        <g style="opacity:0.2">
            <path
                d="M228.16,258.15a20.56,20.56,0,0,1,2.21,16.8c-.39,1.38,1.67,2.28,2.07.9,1.84-6.34,1.24-13.46-2.49-19.06-.81-1.2-2.6.16-1.79,1.36Z"
                style="fill:#fff"></path>
        </g>
        <path
            d="M214.79,274a9.87,9.87,0,0,0-2.56,7.39,13.07,13.07,0,0,0,1.22,1.12.7.7,0,0,0,.29-.65c-.19-2.28.3-5,2-6.67C216.39,274.5,215.48,273.3,214.79,274Z"
            style="fill:#1E66F5"></path>
        <path
            d="M220.62,277.06a8.87,8.87,0,0,0-3.15,7.7,12.61,12.61,0,0,0,1.56.46.33.33,0,0,0,0-.1,7.27,7.27,0,0,1,2.51-6.88C222.27,277.62,221.36,276.43,220.62,277.06Z"
            style="fill:#1E66F5"></path>
        <g style="opacity:0.2">
            <path
                d="M214.79,274a9.87,9.87,0,0,0-2.56,7.39,13.07,13.07,0,0,0,1.22,1.12.7.7,0,0,0,.29-.65c-.19-2.28.3-5,2-6.67C216.39,274.5,215.48,273.3,214.79,274Z">
            </path>
            <path
                d="M220.62,277.06a8.87,8.87,0,0,0-3.15,7.7,12.61,12.61,0,0,0,1.56.46.33.33,0,0,0,0-.1,7.27,7.27,0,0,1,2.51-6.88C222.27,277.62,221.36,276.43,220.62,277.06Z">
            </path>
        </g>
        <path
            d="M254.86,282.51l6.74,2.76a14.46,14.46,0,0,1-4.17,12.4s-3.25.24-7.87-4.56C249.56,293.11,254.55,288.85,254.86,282.51Z"
            style="fill:#fff"></path>
        <path d="M255.62,292.3a1.91,1.91,0,1,1,2.55-.84A1.9,1.9,0,0,1,255.62,292.3Z" style="fill:#1E66F5"></path>
        <path
            d="M256,292.44l-.25-.09c-.45.71-.8,1.15-.92,1.09s.31-1.49,1.14-3.11,1.64-2.85,1.84-2.75,0,.6-.34,1.38l.22.15c.81-1.79,1.24-3.15,1-3.27s-1.62,1.81-2.93,4.38-2.12,4.8-1.81,5S255,294.15,256,292.44Z"
            style="fill:#1E66F5"></path>
        <path
            d="M256,292.44l-.25-.09c-.45.71-.8,1.15-.92,1.09s.31-1.49,1.14-3.11,1.64-2.85,1.84-2.75,0,.6-.34,1.38l.22.15c.81-1.79,1.24-3.15,1-3.27s-1.62,1.81-2.93,4.38-2.12,4.8-1.81,5S255,294.15,256,292.44Z"
            style="fill:#fff;opacity:0.4"></path>
        <path
            d="M143.71,245a61.62,61.62,0,0,0-11,19.17c-3.31,1.58-8.36-17.57-7.07-27.24a67.09,67.09,0,0,1,6.65-4.95l.06,0a8.11,8.11,0,0,1,4.5-1.35h.37A8.75,8.75,0,0,1,143.71,245Z"
            style="fill:#1E66F5;opacity:0.30000000000000004"></path>
        <path
            d="M136.29,313.68a1.94,1.94,0,0,1-1.08.33,1.32,1.32,0,0,1-.28,0c-13.62-1.88-26.7-11.25-33.07-23.37l.09-6.37a2,2,0,0,1,1.76.92l.56.86a1.91,1.91,0,0,1,.32,1.11c5.3,11.49,17.24,20.61,29.86,22.73C135,311.15,135.63,312.42,136.29,313.68Z"
            style="fill:#1E66F5;opacity:0.30000000000000004"></path>
        <path
            d="M168.58,342.51a1.9,1.9,0,0,1-.59.83,38.67,38.67,0,0,1-20.8,8.48,65.39,65.39,0,0,1-7.32-3,2,2,0,0,1,1.79-.9,34.56,34.56,0,0,0,23-7.08C166,341.45,167.27,342,168.58,342.51Z"
            style="fill:#1E66F5;opacity:0.30000000000000004"></path>
    </g>
    <g id="freepik--Planet--inject-76">
        <circle cx="154.42" cy="142.62" r="37.83" transform="translate(-9.07 274.74) rotate(-81.67)"
            style="fill:#1E66F5"></circle>
        <circle cx="154.42" cy="142.62" r="37.83" transform="translate(-9.07 274.74) rotate(-81.67)"
            style="fill:#fff;opacity:0.6000000000000001"></circle>
        <path
            d="M175.7,111.33c-.92,5-4.46,9.6-6.4,15-2.41,6.71,3.25,11-2.33,22.06S154.81,158.69,151.11,164c-2.56,3.66-7.66,10.19-10.54,13.85A37.85,37.85,0,0,0,160.19,180c4.15-4.89,12-12,10.41-12.86-2.3-1.27-7.86,6.42-10.41,5.08s2-4.47,12.3-11.91,9.59-21.31,10.34-28.57a18.14,18.14,0,0,1,3.65-9.18A37.58,37.58,0,0,0,175.7,111.33Z"
            style="fill:#1E66F5;opacity:0.2"></path>
        <path
            d="M175.7,111.33c-.92,5-4.46,9.6-6.4,15-2.41,6.71,3.25,11-2.33,22.06S154.81,158.69,151.11,164c-2.56,3.66-7.66,10.19-10.54,13.85A37.85,37.85,0,0,0,160.19,180c4.15-4.89,12-12,10.41-12.86-2.3-1.27-7.86,6.42-10.41,5.08s2-4.47,12.3-11.91,9.59-21.31,10.34-28.57a18.14,18.14,0,0,1,3.65-9.18A37.58,37.58,0,0,0,175.7,111.33Z"
            style="opacity:0.2"></path>
        <path d="M132.4,137c1.39.26,2.15,2.38,1.7,4.74s-1.94,4-3.32,3.78-2.15-2.39-1.7-4.74S131,136.77,132.4,137Z"
            style="opacity:0.2"></path>
        <path
            d="M157.08,104.88c-5.3,14.05-13,10-17.38,20.52-4.57,10.85,5.78,10.87-3,24.65-6.1,9.59-10.46,13.67-12.55,15.27a37.26,37.26,0,0,0,7.34,7.39c1.92-1.33,5.53-4.44,10-11.21,6.74-10.15,9.32-5.08,15.61-14.31s-1.07-16.09,3.29-25c2.48-5.08,5.39-10.49,6.89-15.09A38,38,0,0,0,157.08,104.88Zm-4.41,31.05c-.65,3.43-2.81,5.89-4.83,5.51s-3.12-3.47-2.47-6.9,2.82-5.88,4.84-5.5S153.33,132.51,152.67,135.93Z"
            style="fill:#1E66F5"></path>
        <path d="M180.44,158.29c1.17.79,1,3-.31,5s-3.37,3-4.54,2.17-1-3,.31-5S179.27,157.5,180.44,158.29Z"
            style="fill:#1E66F5"></path>
        <g style="opacity:0.30000000000000004">
            <path
                d="M157.08,104.88c-5.3,14.05-13,10-17.38,20.52-4.57,10.85,5.78,10.87-3,24.65-6.1,9.59-10.46,13.67-12.55,15.27a37.26,37.26,0,0,0,7.34,7.39c1.92-1.33,5.53-4.44,10-11.21,6.74-10.15,9.32-5.08,15.61-14.31s-1.07-16.09,3.29-25c2.48-5.08,5.39-10.49,6.89-15.09A38,38,0,0,0,157.08,104.88Zm-4.41,31.05c-.65,3.43-2.81,5.89-4.83,5.51s-3.12-3.47-2.47-6.9,2.82-5.88,4.84-5.5S153.33,132.51,152.67,135.93Z"
                style="fill:#fff"></path>
            <path d="M180.44,158.29c1.17.79,1,3-.31,5s-3.37,3-4.54,2.17-1-3,.31-5S179.27,157.5,180.44,158.29Z"
                style="fill:#fff"></path>
        </g>
        <path
            d="M185.45,121c.52.76,1,1.53,1.51,2.34.21.35.39.71.58,1.06,4.14-1.4,6.82-1.75,7.41-.76,1.65,2.8-14.16,15.23-35.32,27.77S120,171.85,118.31,169.05c-.59-1,1-3.16,4.22-6.12-.21-.34-.45-.67-.66-1-.47-.81-.9-1.63-1.32-2.45-17.28,12.2-27.85,22-26.07,25,2.72,4.58,33-8.35,67.64-28.88s60.52-40.89,57.81-45.47C218.14,107.14,204.46,111.69,185.45,121Z"
            style="fill:#1E66F5"></path>
    </g>
</svg>